<?xml version="1.0" standalone="no"?>
<!DOCTYPE svg PUBLIC "-//W3C//DTD SVG 20010904//EN"
 "http://www.w3.org/TR/2001/REC-SVG-20010904/DTD/svg10.dtd">
<svg version="1.0" xmlns="http://www.w3.org/2000/svg"
 width="64.000000pt" height="64.000000pt" viewBox="0 0 64.000000 64.000000"
 preserveAspectRatio="xMidYMid meet">

<g transform="translate(0.000000,64.000000) scale(0.100000,-0.100000)"
fill="#000000" stroke="none">
<path d="M0 320 l0 -320 320 0 320 0 0 320 0 320 -320 0 -320 0 0 -320z m416
197 c16 -9 40 -26 54 -39 l25 -23 -25 -3 c-14 -3 -29 3 -37 14 -12 16 -14 16
-31 1 -15 -14 -40 -17 -135 -17 -89 0 -115 3 -112 13 7 16 66 56 101 67 39 13
125 5 160 -13z m47 -127 c37 0 67 -4 67 -9 0 -5 3 -16 6 -25 5 -14 -6 -16 -83
-16 -57 0 -93 4 -101 12 -10 10 -17 10 -32 0 -12 -7 -58 -12 -121 -12 -88 0
-100 2 -95 16 3 9 6 20 6 25 0 5 49 9 108 9 78 0 114 4 128 14 16 13 21 13 35
0 10 -9 39 -14 82 -14z m-39 -110 c106 0 107 0 104 -22 -3 -22 -7 -23 -122
-26 -78 -2 -123 1 -132 9 -11 9 -17 9 -28 0 -9 -7 -38 -11 -73 -9 -51 3 -58 6
-61 26 -3 21 0 22 71 22 55 0 78 4 87 15 12 14 15 14 30 0 13 -11 42 -15 124
-15z m-204 -95 c9 -11 42 -15 136 -17 l125 -3 -41 -27 c-75 -48 -165 -48 -239
0 -38 24 -39 27 -24 44 20 22 27 22 43 3z"/>
</g>
</svg>
