<?xml version="1.0" standalone="no"?>
<!DOCTYPE svg PUBLIC "-//W3C//DTD SVG 20010904//EN"
 "http://www.w3.org/TR/2001/REC-SVG-20010904/DTD/svg10.dtd">
<svg version="1.0" xmlns="http://www.w3.org/2000/svg"
 width="64.000000pt" height="64.000000pt" viewBox="0 0 64.000000 64.000000"
 preserveAspectRatio="xMidYMid meet">

<g transform="translate(0.000000,64.000000) scale(0.100000,-0.100000)"
fill="#000000" stroke="none">
<path d="M232 581 c-69 -24 -118 -65 -154 -128 -76 -135 -28 -299 110 -381 41
-24 57 -27 132 -27 75 0 91 3 132 27 217 128 184 442 -54 513 -66 19 -101 19
-166 -4z m196 -50 c165 -84 175 -319 18 -416 -44 -27 -58 -30 -126 -30 -68 0
-82 3 -126 30 -177 110 -138 369 66 436 39 13 123 3 168 -20z"/>
<path d="M252 403 l-27 -28 30 -3 c16 -2 31 1 33 7 8 23 72 6 72 -20 0 -3 -19
-9 -42 -13 -60 -10 -88 -30 -88 -65 0 -46 25 -60 110 -59 l75 0 -5 85 c-4 74
-8 87 -29 104 -36 29 -96 25 -129 -8z m104 -98 c9 -23 -16 -46 -45 -43 -34 4
-40 35 -9 47 34 14 48 13 54 -4z"/>
</g>
</svg>
