<svg width="84" height="84" viewBox="0 0 84 84" fill="none" xmlns="http://www.w3.org/2000/svg">
<circle cx="42" cy="42" r="42" fill="#8A06D4"/>
<path d="M65.8389 58.8762L53.6573 37.7395L47.9436 27.8308L41.4748 16.6097C41.3678 16.4244 41.2139 16.2704 41.0286 16.1634C40.8432 16.0564 40.6329 16 40.4189 16C40.2049 16 39.9946 16.0564 39.8093 16.1634C39.6239 16.2704 39.47 16.4244 39.3631 16.6097L27.153 37.7238L22.1637 46.3515C22.0566 46.5369 22.0001 46.7473 22 46.9614C21.9999 47.1756 22.0562 47.386 22.1632 47.5715C22.2702 47.7571 22.4242 47.9112 22.6096 48.0183C22.795 48.1255 23.0054 48.1819 23.2196 48.182L32.6446 48.1879C32.8586 48.1879 33.0688 48.1317 33.2543 48.0249C33.4398 47.9181 33.594 47.7645 33.7014 47.5794L38.5992 39.107L39.3483 37.8113C39.3779 37.7613 39.4107 37.7134 39.4466 37.6677C39.57 37.5111 39.7299 37.3871 39.9123 37.3066C40.0947 37.226 40.294 37.1914 40.4929 37.2058C40.6918 37.2201 40.8841 37.283 41.053 37.3889C41.222 37.4948 41.3624 37.6405 41.462 37.8132L46.5446 46.6297L47.4854 48.2587C47.5367 48.3489 47.5769 48.445 47.6054 48.5448C47.6551 48.7261 47.6622 48.9164 47.6262 49.1009C47.5902 49.2854 47.512 49.4591 47.3978 49.6084C47.2836 49.7577 47.1365 49.8786 46.9678 49.9617C46.7992 50.0448 46.6136 50.0877 46.4257 50.0872L35.3383 50.0804C35.1242 50.0804 34.914 50.1366 34.7285 50.2434C34.543 50.3502 34.3889 50.5038 34.2814 50.6889L29.5625 58.8486C29.4553 59.0339 29.3988 59.2442 29.3987 59.4582C29.3985 59.6723 29.4547 59.8826 29.5616 60.068C29.6685 60.2535 29.8224 60.4075 30.0077 60.5146C30.1931 60.6217 30.4034 60.6781 30.6174 60.6782L40.3884 60.6851L52.572 60.6929L64.7801 60.7008C64.9938 60.7009 65.2038 60.6449 65.389 60.5383C65.5742 60.4318 65.7281 60.2784 65.8353 60.0936C65.9426 59.9088 65.9994 59.699 66 59.4854C66.0006 59.2717 65.9451 59.0616 65.8389 58.8762Z" fill="white"/>
</svg>
