<svg width="84" height="84" viewBox="0 0 84 84" fill="none" xmlns="http://www.w3.org/2000/svg">
<circle cx="42" cy="42" r="42" fill="#1D1336"/>
<path d="M24.0254 40.9476C24.0254 40.442 24.4372 40.0322 24.9452 40.0322H58.9765C59.4845 40.0322 59.8963 40.442 59.8963 40.9476C59.8963 41.4531 59.4845 41.8629 58.9765 41.8629H24.9452C24.4372 41.8629 24.0254 41.4531 24.0254 40.9476Z" fill="#E1147B"/>
<path d="M17.1272 44.975C17.1272 44.4695 17.539 44.0597 18.047 44.0597H42.8806C43.3886 44.0597 43.8004 44.4695 43.8004 44.975C43.8004 45.4805 43.3886 45.8904 42.8806 45.8904H18.047C17.539 45.8904 17.1272 45.4805 17.1272 44.975Z" fill="#E1147B"/>
<path d="M40.2133 56.1421C39.7053 56.1421 39.2935 56.5519 39.2935 57.0574C39.2935 57.5629 39.7053 57.9727 40.2133 57.9727H55.5734C56.0814 57.9727 56.4931 57.5629 56.4931 57.0574C56.4931 56.5519 56.0814 56.1421 55.5734 56.1421H40.2133Z" fill="#E1147B"/>
<path d="M29.9119 61.0849C29.9119 60.5793 30.3237 60.1695 30.8317 60.1695H46.0998C46.6078 60.1695 47.0196 60.5793 47.0196 61.0849C47.0196 61.5904 46.6078 62.0002 46.0998 62.0002H30.8317C30.3237 62.0002 29.9119 61.5904 29.9119 61.0849Z" fill="#E1147B"/>
<path d="M24.9452 48.0871C24.4372 48.0871 24.0254 48.497 24.0254 49.0025C24.0254 49.508 24.4372 49.9178 24.9452 49.9178H54.9296C55.4375 49.9178 55.8493 49.508 55.8493 49.0025C55.8493 48.497 55.4375 48.0871 54.9296 48.0871H24.9452Z" fill="#E1147B"/>
<path d="M18.8748 53.0299C18.8748 52.5244 19.2865 52.1146 19.7945 52.1146H31.7515C32.2594 52.1146 32.6712 52.5244 32.6712 53.0299C32.6712 53.5355 32.2594 53.9453 31.7515 53.9453H19.7945C19.2865 53.9453 18.8748 53.5355 18.8748 53.0299Z" fill="#E1147B"/>
<path d="M35.2466 52.1146C34.7386 52.1146 34.3268 52.5244 34.3268 53.0299C34.3268 53.5355 34.7386 53.9453 35.2466 53.9453H60.0802C60.5882 53.9453 61 53.5355 61 53.0299C61 52.5244 60.5882 52.1146 60.0802 52.1146H35.2466Z" fill="#E1147B"/>
<path d="M22.7378 40.9476C22.7378 41.4531 22.326 41.8629 21.818 41.8629C21.31 41.8629 20.8982 41.4531 20.8982 40.9476C20.8982 40.442 21.31 40.0322 21.818 40.0322C22.326 40.0322 22.7378 40.442 22.7378 40.9476Z" fill="#E1147B"/>
<path d="M14.9198 45.8904C15.4277 45.8904 15.8395 45.4805 15.8395 44.975C15.8395 44.4695 15.4277 44.0597 14.9198 44.0597C14.4118 44.0597 14 44.4695 14 44.975C14 45.4805 14.4118 45.8904 14.9198 45.8904Z" fill="#E1147B"/>
<path d="M38.0059 57.0574C38.0059 57.5629 37.5941 57.9727 37.0861 57.9727C36.5781 57.9727 36.1663 57.5629 36.1663 57.0574C36.1663 56.5519 36.5781 56.1421 37.0861 56.1421C37.5941 56.1421 38.0059 56.5519 38.0059 57.0574Z" fill="#E1147B"/>
<path d="M27.7045 62.0002C28.2125 62.0002 28.6243 61.5904 28.6243 61.0849C28.6243 60.5793 28.2125 60.1695 27.7045 60.1695C27.1965 60.1695 26.7847 60.5793 26.7847 61.0849C26.7847 61.5904 27.1965 62.0002 27.7045 62.0002Z" fill="#E1147B"/>
<path d="M22.7378 49.0025C22.7378 49.508 22.326 49.9178 21.818 49.9178C21.31 49.9178 20.8982 49.508 20.8982 49.0025C20.8982 48.497 21.31 48.0871 21.818 48.0871C22.326 48.0871 22.7378 48.497 22.7378 49.0025Z" fill="#E1147B"/>
<path d="M16.6673 53.9453C17.1753 53.9453 17.5871 53.5355 17.5871 53.0299C17.5871 52.5244 17.1753 52.1146 16.6673 52.1146C16.1593 52.1146 15.7476 52.5244 15.7476 53.0299C15.7476 53.5355 16.1593 53.9453 16.6673 53.9453Z" fill="#E1147B"/>
<path d="M55.5574 31.0408C56.297 32.8176 56.6776 34.7221 56.6776 36.6453C56.6776 37.0497 56.3482 37.3776 55.9418 37.3776H27.9809C27.5746 37.3776 27.2451 37.0497 27.2451 36.6453C27.2451 34.7221 27.6258 32.8176 28.3653 31.0408C29.1049 29.2639 30.1889 27.6495 31.5554 26.2895C32.9219 24.9296 34.5442 23.8508 36.3297 23.1148C38.1151 22.3788 40.0288 22 41.9614 22C43.8939 22 45.8076 22.3788 47.593 23.1148C49.3785 23.8508 51.0008 24.9296 52.3673 26.2895C53.7338 27.6495 54.8178 29.2639 55.5574 31.0408Z" fill="#53CBC7"/>
</svg>
