<?xml version="1.0" encoding="utf-8"?>
<!-- Generator: Adobe Illustrator 23.0.5, SVG Export Plug-In . SVG Version: 6.00 Build 0)  -->
<svg version="1.1" id="Layer_1" xmlns="http://www.w3.org/2000/svg" xmlns:xlink="http://www.w3.org/1999/xlink" x="0px" y="0px"
	 viewBox="0 0 102.31 121.58" style="enable-background:new 0 0 102.31 121.58;" xml:space="preserve">
<style type="text/css">
	.st0{fill:#1A1A2E;}
	.st1{fill:#076363;}
	.st2{fill:#068A90;}
	.st3{clip-path:url(#SVGID_2_);}
	.st4{clip-path:url(#SVGID_4_);}
	.st5{fill:#FFFFFF;}
	.st6{clip-path:url(#SVGID_6_);}
	.st7{clip-path:url(#SVGID_8_);}
	.st8{clip-path:url(#SVGID_10_);}
	.st9{clip-path:url(#SVGID_12_);}
	.st10{clip-path:url(#SVGID_14_);}
	.st11{clip-path:url(#SVGID_16_);}
	.st12{clip-path:url(#SVGID_18_);}
	.st13{clip-path:url(#SVGID_20_);}
	.st14{clip-path:url(#SVGID_22_);}
	.st15{clip-path:url(#SVGID_24_);}
	.st16{clip-path:url(#SVGID_26_);}
	.st17{clip-path:url(#SVGID_28_);}
	.st18{clip-path:url(#SVGID_30_);}
	.st19{clip-path:url(#SVGID_32_);}
</style>
<g>
	<path class="st1" d="M35.51,83.85l-18.68,18.68C6.33,91.53,0.36,77.23,0.02,62.17c-0.06-2.52,0.04-5.1,0.3-7.67
		c0.05-0.54,0.12-1.08,0.18-1.52c0.06-0.51,0.13-1,0.21-1.51c0.16-1.09,0.34-2.06,0.53-2.98c0.21-1.03,0.43-1.98,0.67-2.9
		c0.24-0.93,0.5-1.87,0.82-2.89c0.14-0.44,0.27-0.84,0.4-1.23l0.06-0.18c0.22-0.65,0.42-1.2,0.6-1.71l0.15-0.41l0.18-0.47
		c0.06-0.17,0.3-0.77,0.3-0.77c0.22-0.56,0.41-1,0.61-1.44c0.05-0.14,0.1-0.22,0.15-0.33l0.02-0.05c0.23-0.52,0.43-0.96,0.64-1.38
		c0.08-0.18,0.17-0.36,0.25-0.53l0.21-0.41c0.1-0.2,0.19-0.4,0.3-0.6c0.12-0.24,0.24-0.47,0.36-0.69l0.08-0.16
		c0.15-0.28,0.3-0.55,0.45-0.83c0.23-0.43,0.48-0.88,0.75-1.33l0.06-0.11c0.28-0.48,0.57-0.97,0.87-1.44
		c0.31-0.48,0.62-0.98,0.94-1.46c0.33-0.5,0.61-0.91,0.89-1.29l0.12-0.18l0.09-0.12c0.27-0.37,0.58-0.82,0.9-1.23
		c0.17-0.22,0.34-0.45,0.51-0.68c0.14-0.18,0.26-0.34,0.37-0.48l0.08-0.1c0.01-0.01,0.1-0.11,0.1-0.11l0.02-0.02l0.04-0.05
		c0.19-0.24,0.36-0.45,0.52-0.64l0.53-0.64c0.35-0.42,0.68-0.8,1.03-1.19l0.1-0.13l0.8-0.86c0.08-0.1,0.18-0.19,0.28-0.3
		c0,0,0.21-0.23,0.27-0.3l18.67,18.67c-0.05,0.06-0.28,0.31-0.28,0.31l-0.32,0.35l-0.48,0.57c-0.03,0.04-0.5,0.62-0.5,0.62
		c-0.1,0.13-0.21,0.25-0.3,0.39l-0.05,0.07c-0.04,0.04-0.08,0.1-0.13,0.16l-0.13,0.18c-0.37,0.5-0.76,1.04-1.13,1.6l-0.16,0.25
		c-0.39,0.6-0.79,1.26-1.19,1.97l-0.1,0.18l-0.01,0.02c-0.13,0.25-0.27,0.49-0.39,0.74l-0.07,0.13c-0.3,0.59-0.59,1.2-0.85,1.8
		c-0.61,1.4-1.12,2.85-1.53,4.3c-0.05,0.17-0.1,0.34-0.15,0.53l-0.02,0.05l-0.01,0.11c-0.1,0.4-0.19,0.76-0.27,1.1
		c-0.18,0.83-0.34,1.68-0.46,2.51l-0.02,0.13c-0.01,0.04-0.02,0.08-0.02,0.11l-0.02,0.23c-0.09,0.7-0.16,1.4-0.22,2.08l-0.02,0.19
		c-0.02,0.31-0.03,0.57-0.04,0.83c-0.05,0.9-0.06,1.81-0.03,2.72l0.01,0.3c0.01,0.31,0.02,0.59,0.04,0.91l0.04,0.49
		c0.02,0.19,0.03,0.37,0.05,0.55c0.04,0.35,0.07,0.69,0.11,1.03l0.01,0.07c0.02,0.24,0.06,0.48,0.1,0.72
		c0.04,0.25,0.08,0.51,0.12,0.75c0.03,0.17,0.07,0.37,0.1,0.56l0.03,0.16c0.09,0.47,0.2,0.94,0.31,1.45
		c0.18,0.75,0.38,1.46,0.59,2.14l0.06,0.19c0.07,0.21,0.13,0.41,0.19,0.6c0.1,0.31,0.21,0.6,0.33,0.94c0.19,0.53,0.42,1.09,0.7,1.73
		c0.3,0.7,0.65,1.42,1.09,2.27l0.13,0.25l0.29,0.53c0.1,0.18,0.2,0.35,0.3,0.52c0.01,0.02,0.05,0.08,0.08,0.14l0.36,0.59l0.13,0.2
		C32.81,80.63,34.09,82.31,35.51,83.85z"/>
	<path class="st2" d="M102.13,17.23l-17.9,17.89c-0.02,0.01-0.04,0.03-0.06,0.05c-0.02,0.01-0.12,0.07-0.12,0.07l-0.09,0.03
		l-0.14,0.02h-0.04l-0.1-0.01l-0.1-0.03L49.41,1.07c0.15-0.02,0.53-0.1,0.53-0.1c0.22-0.04,0.43-0.08,0.65-0.11
		c0.3-0.05,0.6-0.1,0.9-0.15c0,0,0.62-0.09,0.77-0.11c0.24-0.03,0.96-0.13,0.96-0.13l0.73-0.08c0.31-0.03,0.62-0.06,0.93-0.09
		l0.3-0.03c0.15-0.01,0.3-0.03,0.45-0.04c0.28-0.03,0.54-0.05,0.81-0.07l0.45-0.02c0.16-0.01,0.3-0.02,0.44-0.03
		c0.25-0.02,0.51-0.02,0.76-0.04l0.96-0.04c0.55-0.02,1.12-0.02,1.68-0.02c1.27,0,2.42,0.04,3.51,0.11
		c0.37,0.02,0.74,0.04,1.16,0.07c0.55,0.04,1.05,0.08,1.53,0.13c0.42,0.04,0.86,0.09,1.4,0.16c0.17,0.02,0.31,0.04,0.49,0.07
		c0.39,0.04,0.69,0.08,0.99,0.14c0.53,0.07,1,0.15,1.37,0.22c0.31,0.05,0.6,0.1,0.92,0.16c0.19,0.04,0.37,0.07,0.56,0.11
		c0.22,0.04,0.4,0.08,0.64,0.13c0.32,0.07,0.64,0.13,0.96,0.21C74.61,1.62,75,1.71,75.38,1.8c0.33,0.08,0.67,0.17,1,0.27
		c0.7,0.19,1.27,0.35,1.81,0.51c0.33,0.1,0.65,0.2,0.98,0.31l0.1,0.03c0.34,0.11,0.7,0.22,1.08,0.36c0.37,0.12,0.69,0.24,1.02,0.36
		c0.06,0.02,0.1,0.03,0.13,0.04l0.01,0.01l0.19,0.07c0.34,0.12,0.67,0.25,0.97,0.37c0.37,0.15,0.73,0.28,1.09,0.44
		c0.28,0.11,0.54,0.22,0.81,0.34c0.93,0.4,1.7,0.75,2.43,1.11c0.47,0.22,0.9,0.43,1.31,0.65c2.55,1.31,5,2.79,7.32,4.43
		c0.34,0.24,0.59,0.42,0.83,0.6c0.54,0.39,1.05,0.77,1.47,1.1l0.08,0.06c0.15,0.11,0.3,0.24,0.48,0.38
		c0.28,0.23,0.54,0.44,0.81,0.65c0.37,0.31,0.73,0.61,1.06,0.9c0.01,0.01,0.04,0.04,0.08,0.07c0.33,0.28,0.67,0.59,1,0.9l0.34,0.3
		c0.13,0.12,0.22,0.2,0.3,0.28l0.05,0.05C102.36,16.6,102.36,17,102.13,17.23z"/>
	<path class="st1" d="M73.01,92.59l-1.19,1.19l-1.46,1.47l-4.4,4.39l-1.46,1.47l-1.47,1.46l-7.32,7.33l-1.46,1.46l-1.46,1.47
		l-1.47,1.46l-5.31,5.32l-0.37-0.1c-0.19-0.04-0.37-0.09-0.55-0.15l-0.25-0.07c-0.1-0.02-0.16-0.04-0.23-0.06l-0.47-0.13l-0.5-0.15
		l-0.99-0.3l-0.55-0.18l-0.13-0.04c-0.14-0.05-0.22-0.07-0.31-0.1l-0.59-0.2l-0.39-0.14l-0.97-0.35c0,0-0.86-0.32-0.95-0.36
		l-0.58-0.22c-0.07-0.03-0.6-0.25-0.62-0.25l-0.71-0.3c-0.16-0.07-0.68-0.3-0.68-0.3c-0.1-0.04-0.18-0.07-0.25-0.11l-0.68-0.31
		c-0.09-0.04-1.12-0.54-1.12-0.54c-0.02-0.01-0.07-0.04-0.12-0.06c-0.1-0.05-0.87-0.44-0.87-0.44c-0.31-0.16-0.62-0.32-0.92-0.48
		l-0.57-0.31c-0.11-0.06-0.22-0.11-0.33-0.18l-0.88-0.5l-0.91-0.54l-0.87-0.53c-0.08-0.05-0.16-0.1-0.24-0.15l-0.12-0.08
		c-0.18-0.11-0.35-0.22-0.51-0.33c-0.1-0.06-0.18-0.11-0.27-0.18c0,0-0.45-0.3-0.59-0.39c-0.07-0.05-0.4-0.27-0.4-0.27l-0.76-0.54
		l-0.92-0.67c-0.05-0.04-0.24-0.17-0.24-0.17l-0.75-0.57c0,0-0.97-0.76-1.1-0.86l-1.04-0.86c-0.02-0.02-0.06-0.05-0.11-0.1
		l-0.45-0.38l-0.39-0.34l-0.5-0.44c-0.1-0.09-0.19-0.17-0.27-0.24c-0.13-0.13-0.25-0.24-0.38-0.35l-0.41-0.37
		c-0.03-0.03-0.18-0.17-0.33-0.32l18.71-18.7c0.14,0.13,0.29,0.26,0.43,0.38c0.04,0.04,0.09,0.08,0.14,0.12l0.01,0.01
		c0.19,0.17,0.42,0.38,0.65,0.56c0.21,0.18,0.48,0.4,0.79,0.64c0.04,0.02,0.06,0.04,0.08,0.05c0.4,0.31,0.8,0.62,1.25,0.93
		l0.28,0.19c0.38,0.26,0.74,0.5,1.09,0.73c0.09,0.06,0.4,0.25,0.4,0.25c0.34,0.21,0.66,0.41,0.99,0.6l0.5,0.28
		c0.21,0.12,0.45,0.25,0.68,0.36c0.15,0.09,0.36,0.19,0.56,0.29l0.28,0.14c0.56,0.27,1.05,0.5,1.5,0.68
		c0.1,0.04,0.37,0.16,0.37,0.16c0.07,0.03,0.14,0.06,0.22,0.09l0.07,0.03c0.22,0.08,0.44,0.18,0.65,0.25c0,0,0.04,0.01,0.07,0.02
		l0.21,0.08c0.24,0.09,0.48,0.18,0.72,0.25c0.1,0.04,0.17,0.07,0.25,0.09c0.07,0.02,0.44,0.15,0.44,0.15
		c0.16,0.05,0.33,0.1,0.5,0.15c0.36,0.11,0.69,0.21,1.01,0.3c0.34,0.09,0.7,0.18,1.11,0.28c0.12,0.03,0.24,0.06,0.36,0.08
		c0.24,0.05,0.44,0.1,0.64,0.14l0.08,0.01c0.13,0.03,0.26,0.05,0.4,0.08v0.1l0.6,0.04h0.2c0.32,0.05,0.67,0.11,1.02,0.15l0.3,0.04
		l0.07,0.01c0.21,0.03,0.47,0.05,0.73,0.08l0.07,0.01c0.06,0.01,0.11,0.01,0.16,0.01c0.05,0.01,0.13,0.02,0.2,0.02l0.06,0.01
		c0.13,0.01,0.25,0.02,0.34,0.02c0.08,0.01,0.22,0.02,0.36,0.02l0.03,0.01c0.18,0.01,0.33,0.02,0.47,0.02
		c0.13,0.01,0.27,0.02,0.36,0.02c0.08,0.01,0.19,0.01,0.28,0.01h0.19c0.29,0.01,0.62,0.02,0.99,0.02c0.52,0,1.02-0.01,1.51-0.04
		c0.2-0.01,0.35-0.02,0.5-0.02l0.41-0.03c0.1-0.01,0.6-0.05,0.6-0.05c0.55-0.05,1.04-0.1,1.51-0.16c0.51-0.07,1.02-0.15,1.5-0.24
		c0.46-0.08,0.96-0.18,1.5-0.3c0.54-0.12,1.04-0.24,1.51-0.38c0.48-0.13,0.98-0.28,1.51-0.45c0.51-0.16,1.01-0.34,1.49-0.53
		C72.82,92.67,72.92,92.63,73.01,92.59z"/>
	<path class="st2" d="M102.11,105.08l-0.06,0.05c-0.1,0.09-0.18,0.18-0.27,0.25c0,0-0.25,0.24-0.28,0.27l-0.45,0.41
		c-0.21,0.18-0.42,0.36-0.63,0.54c-0.41,0.36-0.8,0.69-1.11,0.94c-0.25,0.21-0.48,0.39-0.73,0.59l-0.08,0.06
		c-0.18,0.15-0.34,0.28-0.52,0.41l-0.05,0.04c-0.31,0.25-0.63,0.48-0.92,0.7c-0.28,0.21-0.57,0.42-0.86,0.64l-0.25,0.18
		c-0.02,0.01-0.07,0.05-0.13,0.09l-0.25,0.18c-0.3,0.21-0.59,0.41-0.9,0.61l-0.07,0.05c-0.34,0.22-0.7,0.47-1.08,0.71l-0.36,0.23
		c-0.28,0.18-0.51,0.33-0.77,0.48c-0.14,0.1-0.26,0.16-0.37,0.24c-0.36,0.22-0.68,0.41-1.06,0.62c-0.37,0.21-0.71,0.41-1.08,0.6
		l-0.41,0.22c-0.3,0.16-0.61,0.33-0.92,0.48c-0.44,0.23-0.88,0.45-1.32,0.67c-0.25,0.12-0.51,0.25-0.77,0.36l-0.11,0.05l-0.79,0.36
		c-0.25,0.11-0.5,0.22-0.76,0.34l-0.24,0.1c-0.24,0.1-0.45,0.19-0.67,0.28L83.42,117l-0.77,0.31c-0.3,0.11-0.59,0.23-0.89,0.33
		l-0.11,0.04l-0.2,0.07c0,0.01-0.05,0.01-0.18,0.06c-0.05,0.02-0.08,0.03-0.12,0.05c-0.25,0.1-0.5,0.18-0.76,0.27l-0.39,0.13
		c-0.28,0.09-0.56,0.19-0.85,0.28l-0.18,0.06c-0.13,0.04-0.25,0.08-0.4,0.12c-0.22,0.07-0.41,0.13-0.61,0.19
		c-0.49,0.15-0.94,0.27-1.35,0.38l-0.11,0.04l-0.3,0.07c-0.22,0.06-0.44,0.11-0.67,0.18l-0.35,0.08c-0.42,0.1-0.86,0.21-1.35,0.31
		L73.76,120c-0.07,0.02-0.11,0.02-0.16,0.04l-0.03,0.01c-0.07,0.01-0.11,0.02-0.18,0.04c-0.25,0.05-0.53,0.11-0.82,0.17l-0.57,0.11
		c-0.32,0.07-0.6,0.11-0.88,0.16l-0.91,0.15c-0.15,0.02-0.3,0.05-0.47,0.07c-0.3,0.05-0.58,0.09-0.88,0.13l-0.62,0.07
		c-0.08,0.01-0.14,0.02-0.22,0.02c-0.42,0.05-0.8,0.1-1.17,0.13c-0.45,0.05-0.94,0.1-1.54,0.14c-0.38,0.03-0.76,0.05-1.11,0.07H64.2
		c-0.33,0.02-0.61,0.03-0.9,0.04c-0.62,0.03-1.2,0.04-1.77,0.05h-1.36c-0.01,0-0.75-0.01-0.75-0.01c-0.27-0.01-0.55-0.01-0.82-0.02
		c-0.45-0.01-0.93-0.04-1.43-0.07c0,0-1.14-0.07-1.44-0.1l-0.9-0.08c-0.18-0.01-0.35-0.03-0.53-0.05c-0.13-0.01-0.27-0.03-0.41-0.05
		l-0.19-0.02c-0.28-0.03-0.56-0.07-0.82-0.1l-0.61-0.08c-0.27-0.04-0.54-0.07-0.81-0.11l-0.62-0.1c-0.28-0.05-0.54-0.1-0.81-0.14
		l-0.67-0.12l34.19-34.18l0.04-0.02l0.06-0.02c0.03-0.01,0.1-0.01,0.1-0.01c0.19,0,0.34,0.06,0.47,0.18l17.86,17.86
		c0.02,0.02,0.04,0.05,0.07,0.07C102.38,104.46,102.36,104.82,102.11,105.08z"/>
	<path class="st1" d="M73.03,28.82c-0.1-0.04-0.19-0.07-0.28-0.1c-0.56-0.22-1.04-0.38-1.5-0.53c-0.44-0.14-0.82-0.26-1.19-0.36
		c-0.1-0.03-0.21-0.06-0.31-0.09c-0.18-0.05-0.34-0.09-0.51-0.13c-0.21-0.06-0.44-0.12-0.65-0.16l-0.36-0.08l-0.07-0.01l-0.19-0.04
		c-0.38-0.09-0.79-0.17-1.24-0.25c-0.03-0.01-0.09-0.01-0.15-0.02c-0.21-0.04-0.44-0.07-0.64-0.1c-0.14-0.03-0.33-0.05-0.55-0.08
		l-0.13-0.02c-0.12-0.02-0.24-0.04-0.37-0.05l-0.07-0.01c-0.24-0.03-0.44-0.05-0.63-0.07l-0.24-0.02l-0.19-0.02
		c-0.54-0.05-1-0.08-1.42-0.1c-0.01-0.01-0.07-0.01-0.13-0.01c-0.44-0.02-0.95-0.03-1.47-0.03c-0.54,0-1.03,0.01-1.5,0.02
		c-0.47,0.02-0.96,0.05-1.51,0.1c-0.52,0.04-1.03,0.1-1.5,0.16c-0.5,0.07-1,0.14-1.51,0.22c-0.3,0.05-0.59,0.1-0.89,0.16
		c-0.13,0.02-0.25,0.05-0.37,0.07c-0.08,0.02-0.75,0.16-0.85,0.19c-0.11,0.02-0.86,0.21-0.86,0.21s-0.29,0.08-0.35,0.09
		c-0.07,0.02-0.39,0.11-0.39,0.11c-0.27,0.08-0.5,0.15-0.74,0.22l-0.33,0.11l-0.41,0.14c-0.15,0.05-0.31,0.1-0.47,0.15l-0.84,0.31
		c-0.1,0.04-0.39,0.15-0.39,0.15l-0.72,0.3l-0.33,0.14c-0.16,0.07-0.31,0.15-0.47,0.22l-0.18,0.08c-0.14,0.07-0.28,0.13-0.42,0.2
		l-0.53,0.27c-0.2,0.1-0.4,0.2-0.59,0.3c-0.16,0.08-0.67,0.36-0.67,0.36l-0.41,0.22l-0.82,0.49l-0.71,0.45l-0.55,0.36l-0.24,0.16
		l-0.24,0.18c-0.16,0.11-0.34,0.24-0.53,0.37c-0.15,0.11-0.3,0.22-0.46,0.34l-0.27,0.2l-0.24,0.18c-0.14,0.11-0.26,0.21-0.39,0.31
		L39,34.15c-0.18,0.15-0.35,0.28-0.51,0.42c-0.11,0.09-0.28,0.24-0.32,0.28l-0.12,0.1c-0.16,0.15-0.33,0.29-0.49,0.44l-0.05,0.05
		c-0.36-0.36-8.09-8.09-8.41-8.41c-0.31-0.3-0.61-0.61-0.91-0.91l-4.95-4.95c-0.5-0.5-0.99-0.99-1.47-1.47
		c-0.33-0.33-2.93-2.93-2.93-2.93l0.66-0.62c0.16-0.15,0.29-0.27,0.42-0.38l0.35-0.32c0.13-0.12,0.65-0.58,0.76-0.67l0.47-0.4
		l0.74-0.62l0.56-0.45c0.1-0.08,1.13-0.88,1.13-0.88l0.81-0.61l0.54-0.4c0.1-0.07,0.21-0.15,0.31-0.22l0.38-0.27
		c0,0,0.73-0.5,0.85-0.58c0.12-0.08,0.24-0.16,0.36-0.24l0.13-0.08c0.07-0.05,0.12-0.08,0.16-0.11c0.08-0.05,0.71-0.46,0.71-0.46
		s0.86-0.53,0.9-0.56l0.44-0.27c0.14-0.08,0.28-0.17,0.42-0.25L30,8.35c0.11-0.07,0.21-0.13,0.32-0.19l0.1-0.06l0.82-0.46l0.53-0.29
		l0.37-0.21l0.92-0.48l0.93-0.47l0.94-0.45c0.3-0.15,0.62-0.28,0.93-0.43l0.32-0.14l0.02-0.01l0.61-0.26l0.96-0.41l0.42-0.17
		c0.18-0.07,0.35-0.14,0.53-0.21c0.12-0.05,0.21-0.08,0.31-0.12l0.67-0.25c0.13-0.05,0.45-0.16,0.45-0.16l0.53-0.19
		c0.15-0.05,0.3-0.1,0.44-0.15l0.52-0.18c0.11-0.04,1.02-0.33,1.02-0.33l0.76-0.23c0.07-0.02,0.15-0.04,0.22-0.06
		c0.13-0.04,0.25-0.07,0.37-0.1c0,0,0.54-0.16,0.64-0.18l0.08-0.02l0.11-0.03c0,0,0.27-0.07,0.32-0.08l0.89-0.22L73.03,28.82z"/>
	<g>
		<defs>
			<path id="SVGID_17_" d="M73.03,28.82c-0.1-0.04-0.19-0.07-0.28-0.1c-0.56-0.22-1.04-0.38-1.5-0.53
				c-0.44-0.14-0.82-0.26-1.19-0.36c-0.1-0.03-0.21-0.06-0.31-0.09c-0.18-0.05-0.34-0.09-0.51-0.13c-0.21-0.06-0.44-0.12-0.65-0.16
				l-0.36-0.08l-0.07-0.01l-0.19-0.04c-0.38-0.09-0.79-0.17-1.24-0.25c-0.03-0.01-0.09-0.01-0.15-0.02
				c-0.21-0.04-0.44-0.07-0.64-0.1c-0.14-0.03-0.33-0.05-0.55-0.08l-0.13-0.02c-0.12-0.02-0.24-0.04-0.37-0.05l-0.07-0.01
				c-0.24-0.03-0.44-0.05-0.63-0.07l-0.24-0.02l-0.19-0.02c-0.54-0.05-1-0.08-1.42-0.1c-0.01-0.01-0.07-0.01-0.13-0.01
				c-0.44-0.02-0.95-0.03-1.47-0.03c-0.54,0-1.03,0.01-1.5,0.02c-0.47,0.02-0.96,0.05-1.51,0.1c-0.52,0.04-1.03,0.1-1.5,0.16
				c-0.5,0.07-1,0.14-1.51,0.22c-0.3,0.05-0.59,0.1-0.89,0.16c-0.13,0.02-0.25,0.05-0.37,0.07c-0.08,0.02-0.75,0.16-0.85,0.19
				c-0.11,0.02-0.86,0.21-0.86,0.21s-0.29,0.08-0.35,0.09c-0.07,0.02-0.39,0.11-0.39,0.11c-0.27,0.08-0.5,0.15-0.74,0.22l-0.33,0.11
				l-0.41,0.14c-0.15,0.05-0.31,0.1-0.47,0.15l-0.84,0.31c-0.1,0.04-0.39,0.15-0.39,0.15l-0.72,0.3l-0.33,0.14
				c-0.16,0.07-0.31,0.15-0.47,0.22l-0.18,0.08c-0.14,0.07-0.28,0.13-0.42,0.2l-0.53,0.27c-0.2,0.1-0.4,0.2-0.59,0.3
				c-0.16,0.08-0.67,0.36-0.67,0.36l-0.41,0.22l-0.82,0.49l-0.71,0.45l-0.55,0.36l-0.24,0.16l-0.24,0.18
				c-0.16,0.11-0.34,0.24-0.53,0.37c-0.15,0.11-0.3,0.22-0.46,0.34l-0.27,0.2l-0.24,0.18c-0.14,0.11-0.26,0.21-0.39,0.31L39,34.15
				c-0.18,0.15-0.35,0.28-0.51,0.42c-0.11,0.09-0.28,0.24-0.32,0.28l-0.12,0.1c-0.16,0.15-0.33,0.29-0.49,0.44l-0.05,0.05
				c-0.36-0.36-8.09-8.09-8.41-8.41c-0.31-0.3-0.61-0.61-0.91-0.91l-4.95-4.95c-0.5-0.5-0.99-0.99-1.47-1.47
				c-0.33-0.33-2.93-2.93-2.93-2.93l0.66-0.62c0.16-0.15,0.29-0.27,0.42-0.38l0.35-0.32c0.13-0.12,0.65-0.58,0.76-0.67l0.47-0.4
				l0.74-0.62l0.56-0.45c0.1-0.08,1.13-0.88,1.13-0.88l0.81-0.61l0.54-0.4c0.1-0.07,0.21-0.15,0.31-0.22l0.38-0.27
				c0,0,0.73-0.5,0.85-0.58c0.12-0.08,0.24-0.16,0.36-0.24l0.13-0.08c0.07-0.05,0.12-0.08,0.16-0.11c0.08-0.05,0.71-0.46,0.71-0.46
				s0.86-0.53,0.9-0.56l0.44-0.27c0.14-0.08,0.28-0.17,0.42-0.25L30,8.35c0.11-0.07,0.21-0.13,0.32-0.19l0.1-0.06l0.82-0.46
				l0.53-0.29l0.37-0.21l0.92-0.48l0.93-0.47l0.94-0.45c0.3-0.15,0.62-0.28,0.93-0.43l0.32-0.14l0.02-0.01l0.61-0.26l0.96-0.41
				l0.42-0.17c0.18-0.07,0.35-0.14,0.53-0.21c0.12-0.05,0.21-0.08,0.31-0.12l0.67-0.25c0.13-0.05,0.45-0.16,0.45-0.16l0.53-0.19
				c0.15-0.05,0.3-0.1,0.44-0.15l0.52-0.18c0.11-0.04,1.02-0.33,1.02-0.33l0.76-0.23c0.07-0.02,0.15-0.04,0.22-0.06
				c0.13-0.04,0.25-0.07,0.37-0.1c0,0,0.54-0.16,0.64-0.18l0.08-0.02l0.11-0.03c0,0,0.27-0.07,0.32-0.08l0.89-0.22L73.03,28.82z"/>
		</defs>
		<clipPath id="SVGID_2_">
			<use xlink:href="#SVGID_17_"  style="overflow:visible;"/>
		</clipPath>
		<g class="st3">
			<rect x="48.56" y="-3.81" class="st2" width="2.5" height="45.32"/>
			<rect x="53.94" y="-3.81" class="st2" width="2.5" height="45.32"/>
			<rect x="59.34" y="-3.81" class="st2" width="2.5" height="45.32"/>
			<rect x="64.73" y="-3.81" class="st2" width="2.5" height="45.32"/>
			<rect x="70.13" y="-3.81" class="st2" width="2.5" height="45.32"/>
			<rect x="43.47" y="-3.81" class="st2" width="2.5" height="45.32"/>
			<rect x="38.38" y="-3.81" class="st2" width="2.5" height="45.32"/>
			<rect x="33.29" y="-3.81" class="st2" width="2.5" height="45.32"/>
			<rect x="28.2" y="-3.81" class="st2" width="2.5" height="45.32"/>
			<rect x="23.11" y="-3.81" class="st2" width="2.5" height="45.32"/>
			<rect x="18.08" y="-3.81" class="st2" width="2.5" height="45.32"/>
		</g>
	</g>
	<g>
		<defs>
			<path id="SVGID_19_" d="M73.01,92.59l-1.19,1.19l-1.46,1.47l-4.4,4.39l-1.46,1.47l-1.47,1.46l-7.32,7.33l-1.46,1.46l-1.46,1.47
				l-1.47,1.46l-5.31,5.32l-0.37-0.1c-0.19-0.04-0.37-0.09-0.55-0.15l-0.25-0.07c-0.1-0.02-0.16-0.04-0.23-0.06l-0.47-0.13
				l-0.5-0.15l-0.99-0.3l-0.55-0.18l-0.13-0.04c-0.14-0.05-0.22-0.07-0.31-0.1l-0.59-0.2l-0.39-0.14l-0.97-0.35
				c0,0-0.86-0.32-0.95-0.36l-0.58-0.22c-0.07-0.03-0.6-0.25-0.62-0.25l-0.71-0.3c-0.16-0.07-0.68-0.3-0.68-0.3
				c-0.1-0.04-0.18-0.07-0.25-0.11l-0.68-0.31c-0.09-0.04-1.12-0.54-1.12-0.54c-0.02-0.01-0.07-0.04-0.12-0.06
				c-0.1-0.05-0.87-0.44-0.87-0.44c-0.31-0.16-0.62-0.32-0.92-0.48l-0.57-0.31c-0.11-0.06-0.22-0.11-0.33-0.18l-0.88-0.5l-0.91-0.54
				l-0.87-0.53c-0.08-0.05-0.16-0.1-0.24-0.15l-0.12-0.08c-0.18-0.11-0.35-0.22-0.51-0.33c-0.1-0.06-0.18-0.11-0.27-0.18
				c0,0-0.45-0.3-0.59-0.39c-0.07-0.05-0.4-0.27-0.4-0.27l-0.76-0.54l-0.92-0.67c-0.05-0.04-0.24-0.17-0.24-0.17l-0.75-0.57
				c0,0-0.97-0.76-1.1-0.86l-1.04-0.86c-0.02-0.02-0.06-0.05-0.11-0.1l-0.45-0.38l-0.39-0.34l-0.5-0.44
				c-0.1-0.09-0.19-0.17-0.27-0.24c-0.13-0.13-0.25-0.24-0.38-0.35l-0.41-0.37c-0.03-0.03-0.18-0.17-0.33-0.32l18.71-18.7
				c0.14,0.13,0.29,0.26,0.43,0.38c0.04,0.04,0.09,0.08,0.14,0.12l0.01,0.01c0.19,0.17,0.42,0.38,0.65,0.56
				c0.21,0.18,0.48,0.4,0.79,0.64c0.04,0.02,0.06,0.04,0.08,0.05c0.4,0.31,0.8,0.62,1.25,0.93l0.28,0.19
				c0.38,0.26,0.74,0.5,1.09,0.73c0.09,0.06,0.4,0.25,0.4,0.25c0.34,0.21,0.66,0.41,0.99,0.6l0.5,0.28
				c0.21,0.12,0.45,0.25,0.68,0.36c0.15,0.09,0.36,0.19,0.56,0.29l0.28,0.14c0.56,0.27,1.05,0.5,1.5,0.68
				c0.1,0.04,0.37,0.16,0.37,0.16c0.07,0.03,0.14,0.06,0.22,0.09l0.07,0.03c0.22,0.08,0.44,0.18,0.65,0.25c0,0,0.04,0.01,0.07,0.02
				l0.21,0.08c0.24,0.09,0.48,0.18,0.72,0.25c0.1,0.04,0.17,0.07,0.25,0.09c0.07,0.02,0.44,0.15,0.44,0.15
				c0.16,0.05,0.33,0.1,0.5,0.15c0.36,0.11,0.69,0.21,1.01,0.3c0.34,0.09,0.7,0.18,1.11,0.28c0.12,0.03,0.24,0.06,0.36,0.08
				c0.24,0.05,0.44,0.1,0.64,0.14l0.08,0.01c0.13,0.03,0.26,0.05,0.4,0.08l0,0l0.59,0.11l0.21,0.03c0.32,0.05,0.67,0.11,1.02,0.15
				l0.3,0.04l0.07,0.01c0.21,0.03,0.47,0.05,0.73,0.08l0.07,0.01c0.06,0.01,0.11,0.01,0.16,0.01c0.05,0.01,0.13,0.02,0.2,0.02
				l0.06,0.01c0.13,0.01,0.25,0.02,0.34,0.02c0.08,0.01,0.22,0.02,0.36,0.02l0.03,0.01c0.18,0.01,0.33,0.02,0.47,0.02
				c0.13,0.01,0.27,0.02,0.36,0.02c0.08,0.01,0.19,0.01,0.28,0.01h0.19c0.29,0.01,0.62,0.02,0.99,0.02c0.52,0,1.02-0.01,1.51-0.04
				c0.2-0.01,0.35-0.02,0.5-0.02l0.41-0.03c0.1-0.01,0.6-0.05,0.6-0.05c0.55-0.05,1.04-0.1,1.51-0.16c0.51-0.07,1.02-0.15,1.5-0.24
				c0.46-0.08,0.96-0.18,1.5-0.3c0.54-0.12,1.04-0.24,1.51-0.38c0.48-0.13,0.98-0.28,1.51-0.45c0.51-0.16,1.01-0.34,1.49-0.53
				C72.82,92.67,72.92,92.63,73.01,92.59z"/>
		</defs>
		<clipPath id="SVGID_4_">
			<use xlink:href="#SVGID_19_"  style="overflow:visible;"/>
		</clipPath>
		<g class="st4">
			<rect x="48.56" y="85.22" class="st2" width="2.5" height="45.32"/>
			<rect x="53.94" y="85.22" class="st2" width="2.5" height="45.32"/>
			<rect x="59.34" y="85.22" class="st2" width="2.5" height="45.32"/>
			<rect x="64.73" y="85.22" class="st2" width="2.5" height="45.32"/>
			<rect x="70.13" y="85.22" class="st2" width="2.5" height="45.32"/>
			<rect x="43.47" y="85.22" class="st2" width="2.5" height="45.32"/>
			<rect x="38.38" y="85.22" class="st2" width="2.5" height="45.32"/>
			<rect x="33.29" y="85.22" class="st2" width="2.5" height="45.32"/>
			<rect x="28.2" y="85.22" class="st2" width="2.5" height="45.32"/>
			<rect x="23.11" y="85.22" class="st2" width="2.5" height="45.32"/>
			<rect x="18.08" y="85.22" class="st2" width="2.5" height="45.32"/>
		</g>
	</g>
</g>
</svg>
