<?xml version="1.0" encoding="UTF-8"?>
<svg xmlns="http://www.w3.org/2000/svg" xmlns:xlink="http://www.w3.org/1999/xlink" viewBox="0 0 32 32" width="32px" height="32px">
<g id="surface146441449">
<path style=" stroke:none;fill-rule:nonzero;fill:rgb(60.000002%,60.000002%,60.000002%);fill-opacity:1;" d="M 15.941406 2.539062 C 15.914062 2.546875 15.886719 2.550781 15.859375 2.558594 C 15.5625 2.628906 15.351562 2.894531 15.359375 3.199219 L 15.359375 7.039062 C 15.359375 7.269531 15.476562 7.484375 15.675781 7.601562 C 15.878906 7.71875 16.121094 7.71875 16.324219 7.601562 C 16.523438 7.484375 16.640625 7.269531 16.640625 7.039062 L 16.640625 3.199219 C 16.648438 3.015625 16.574219 2.835938 16.441406 2.710938 C 16.304688 2.585938 16.121094 2.523438 15.941406 2.539062 Z M 6.820312 6.300781 C 6.578125 6.34375 6.386719 6.515625 6.320312 6.75 C 6.253906 6.984375 6.324219 7.234375 6.5 7.398438 L 9.21875 10.121094 C 9.375 10.308594 9.621094 10.398438 9.863281 10.34375 C 10.101562 10.289062 10.289062 10.101562 10.34375 9.863281 C 10.398438 9.621094 10.308594 9.375 10.121094 9.21875 L 7.398438 6.5 C 7.265625 6.359375 7.074219 6.285156 6.878906 6.300781 C 6.859375 6.300781 6.839844 6.300781 6.820312 6.300781 Z M 24.980469 6.300781 C 24.835938 6.320312 24.699219 6.390625 24.601562 6.5 L 21.878906 9.21875 C 21.691406 9.375 21.601562 9.621094 21.65625 9.863281 C 21.710938 10.101562 21.898438 10.289062 22.136719 10.34375 C 22.378906 10.398438 22.625 10.308594 22.78125 10.121094 L 25.5 7.398438 C 25.699219 7.210938 25.757812 6.914062 25.640625 6.664062 C 25.519531 6.410156 25.253906 6.265625 24.980469 6.300781 Z M 16 9.601562 C 12.46875 9.601562 9.601562 12.46875 9.601562 16 C 9.601562 19.53125 12.46875 22.398438 16 22.398438 C 19.53125 22.398438 22.398438 19.53125 22.398438 16 C 22.398438 12.46875 19.53125 9.601562 16 9.601562 Z M 3.019531 15.359375 C 2.667969 15.410156 2.421875 15.738281 2.46875 16.089844 C 2.519531 16.441406 2.847656 16.691406 3.199219 16.640625 L 7.039062 16.640625 C 7.269531 16.640625 7.484375 16.523438 7.601562 16.324219 C 7.71875 16.121094 7.71875 15.878906 7.601562 15.675781 C 7.484375 15.476562 7.269531 15.359375 7.039062 15.359375 L 3.199219 15.359375 C 3.179688 15.359375 3.160156 15.359375 3.140625 15.359375 C 3.121094 15.359375 3.101562 15.359375 3.078125 15.359375 C 3.058594 15.359375 3.039062 15.359375 3.019531 15.359375 Z M 24.78125 15.359375 C 24.425781 15.410156 24.179688 15.738281 24.230469 16.089844 C 24.28125 16.441406 24.609375 16.691406 24.960938 16.640625 L 28.800781 16.640625 C 29.03125 16.640625 29.246094 16.523438 29.363281 16.324219 C 29.476562 16.121094 29.476562 15.878906 29.363281 15.675781 C 29.246094 15.476562 29.03125 15.359375 28.800781 15.359375 L 24.960938 15.359375 C 24.941406 15.359375 24.921875 15.359375 24.898438 15.359375 C 24.878906 15.359375 24.859375 15.359375 24.839844 15.359375 C 24.820312 15.359375 24.800781 15.359375 24.78125 15.359375 Z M 9.601562 21.679688 C 9.453125 21.699219 9.320312 21.773438 9.21875 21.878906 L 6.5 24.601562 C 6.308594 24.753906 6.222656 25.003906 6.277344 25.242188 C 6.332031 25.480469 6.519531 25.667969 6.757812 25.722656 C 6.996094 25.777344 7.246094 25.691406 7.398438 25.5 L 10.121094 22.78125 C 10.308594 22.597656 10.367188 22.316406 10.265625 22.074219 C 10.164062 21.828125 9.921875 21.675781 9.660156 21.679688 C 9.640625 21.679688 9.621094 21.679688 9.601562 21.679688 Z M 22.199219 21.679688 C 21.960938 21.722656 21.765625 21.898438 21.699219 22.128906 C 21.632812 22.363281 21.703125 22.613281 21.878906 22.78125 L 24.601562 25.5 C 24.753906 25.691406 25.003906 25.777344 25.242188 25.722656 C 25.480469 25.667969 25.667969 25.480469 25.722656 25.242188 C 25.777344 25.003906 25.691406 24.753906 25.5 24.601562 L 22.78125 21.878906 C 22.660156 21.753906 22.496094 21.683594 22.320312 21.679688 C 22.300781 21.679688 22.28125 21.679688 22.261719 21.679688 C 22.238281 21.679688 22.21875 21.679688 22.199219 21.679688 Z M 15.941406 24.300781 C 15.914062 24.304688 15.886719 24.3125 15.859375 24.320312 C 15.5625 24.386719 15.351562 24.65625 15.359375 24.960938 L 15.359375 28.800781 C 15.359375 29.03125 15.476562 29.246094 15.675781 29.363281 C 15.878906 29.476562 16.121094 29.476562 16.324219 29.363281 C 16.523438 29.246094 16.640625 29.03125 16.640625 28.800781 L 16.640625 24.960938 C 16.648438 24.773438 16.574219 24.597656 16.441406 24.472656 C 16.304688 24.34375 16.121094 24.28125 15.941406 24.300781 Z M 15.941406 24.300781 "/>
</g>
</svg>