<?xml version="1.0" encoding="UTF-8"?>
<svg xmlns="http://www.w3.org/2000/svg" xmlns:xlink="http://www.w3.org/1999/xlink" viewBox="0 0 32 32" width="32px" height="32px">
<g id="surface138857693">
<path style=" stroke:none;fill-rule:nonzero;fill:rgb(60.000002%,60.000002%,60.000002%);fill-opacity:1;" d="M 15.988281 2.550781 C 15.636719 2.558594 15.355469 2.847656 15.359375 3.199219 L 15.359375 7.039062 C 15.355469 7.269531 15.476562 7.484375 15.675781 7.601562 C 15.875 7.71875 16.125 7.71875 16.324219 7.601562 C 16.523438 7.484375 16.644531 7.269531 16.640625 7.039062 L 16.640625 3.199219 C 16.640625 3.027344 16.574219 2.859375 16.453125 2.738281 C 16.328125 2.617188 16.164062 2.546875 15.988281 2.550781 Z M 6.96875 6.328125 C 6.707031 6.332031 6.472656 6.488281 6.375 6.730469 C 6.277344 6.972656 6.335938 7.246094 6.523438 7.429688 L 9.210938 10.117188 C 9.371094 10.285156 9.609375 10.351562 9.835938 10.292969 C 10.058594 10.234375 10.234375 10.058594 10.292969 9.835938 C 10.351562 9.609375 10.285156 9.371094 10.117188 9.210938 L 7.429688 6.523438 C 7.308594 6.398438 7.140625 6.328125 6.96875 6.328125 Z M 25.011719 6.328125 C 24.84375 6.335938 24.6875 6.40625 24.570312 6.523438 L 21.882812 9.210938 C 21.714844 9.371094 21.648438 9.609375 21.707031 9.835938 C 21.765625 10.058594 21.941406 10.234375 22.164062 10.292969 C 22.390625 10.351562 22.628906 10.285156 22.789062 10.117188 L 25.476562 7.429688 C 25.664062 7.246094 25.722656 6.964844 25.621094 6.71875 C 25.515625 6.476562 25.273438 6.320312 25.011719 6.328125 Z M 16 9.601562 C 15.910156 9.597656 15.820312 9.617188 15.738281 9.652344 C 12.328125 9.796875 9.601562 12.550781 9.601562 16 C 9.601562 19.542969 12.457031 22.398438 16 22.398438 C 19.542969 22.398438 22.398438 19.542969 22.398438 16 C 22.398438 12.550781 19.675781 9.796875 16.261719 9.652344 C 16.179688 9.617188 16.089844 9.597656 16 9.601562 Z M 3.199219 15.359375 C 2.96875 15.355469 2.753906 15.476562 2.636719 15.675781 C 2.523438 15.875 2.523438 16.125 2.636719 16.324219 C 2.753906 16.523438 2.96875 16.644531 3.199219 16.640625 L 7.039062 16.640625 C 7.269531 16.644531 7.484375 16.523438 7.601562 16.324219 C 7.71875 16.125 7.71875 15.875 7.601562 15.675781 C 7.484375 15.476562 7.269531 15.355469 7.039062 15.359375 Z M 24.960938 15.359375 C 24.730469 15.355469 24.515625 15.476562 24.398438 15.675781 C 24.28125 15.875 24.28125 16.125 24.398438 16.324219 C 24.515625 16.523438 24.730469 16.644531 24.960938 16.640625 L 28.800781 16.640625 C 29.03125 16.644531 29.246094 16.523438 29.363281 16.324219 C 29.476562 16.125 29.476562 15.875 29.363281 15.675781 C 29.246094 15.476562 29.03125 15.355469 28.800781 15.359375 Z M 9.652344 21.691406 C 9.484375 21.695312 9.328125 21.765625 9.210938 21.882812 L 6.523438 24.570312 C 6.355469 24.730469 6.289062 24.96875 6.347656 25.195312 C 6.40625 25.417969 6.582031 25.59375 6.804688 25.652344 C 7.03125 25.710938 7.269531 25.644531 7.429688 25.476562 L 10.117188 22.789062 C 10.304688 22.605469 10.363281 22.324219 10.257812 22.082031 C 10.15625 21.835938 9.914062 21.683594 9.652344 21.691406 Z M 22.328125 21.691406 C 22.070312 21.691406 21.835938 21.847656 21.738281 22.089844 C 21.640625 22.332031 21.699219 22.605469 21.882812 22.789062 L 24.570312 25.476562 C 24.730469 25.644531 24.96875 25.710938 25.195312 25.652344 C 25.417969 25.59375 25.59375 25.417969 25.652344 25.195312 C 25.710938 24.96875 25.644531 24.730469 25.476562 24.570312 L 22.789062 21.882812 C 22.667969 21.757812 22.503906 21.691406 22.328125 21.691406 Z M 15.988281 24.3125 C 15.636719 24.316406 15.355469 24.605469 15.359375 24.960938 L 15.359375 28.800781 C 15.355469 29.03125 15.476562 29.246094 15.675781 29.363281 C 15.875 29.476562 16.125 29.476562 16.324219 29.363281 C 16.523438 29.246094 16.644531 29.03125 16.640625 28.800781 L 16.640625 24.960938 C 16.640625 24.785156 16.574219 24.621094 16.453125 24.5 C 16.328125 24.375 16.164062 24.308594 15.988281 24.3125 Z M 15.988281 24.3125 "/>
</g>
</svg>
